<svg xmlns:xlink="http://www.w3.org/1999/xlink" xmlns="http://www.w3.org/2000/svg" data-name="Layer 2" viewBox="0 0 232 40" width="240" height="48"><g data-name="Layer 1"><path d="M232 40h-80V0h80z" style="" fill="#9DA1A8" stroke-width="0px"></path><path d="M145 40H0V0h145z" style="" fill="#E5FF00" stroke-width="0px"></path><path d="M201.39 26.81V33h-19.01V7h18.69v6.19h-11.6v3.62h8.38v6.13h-8.38v3.88h11.92Zm-20.94-1.42c0 4.61-3.68 7.61-9.31 7.61h-11.96V7h11.21c5.51 0 9.15 2.79 9.15 7.39 0 2.23-.95 3.97-2.57 5.16 2.14 1.19 3.49 3.19 3.49 5.83Zm-14.18-12.44v4.09h3.92c1.23 0 2.26-.71 2.26-2.04 0-1.26-.99-2.04-2.26-2.04h-3.92Zm7.09 11.92c0-1.34-.99-2.19-2.42-2.19h-4.67v4.38h4.67c1.43 0 2.42-.93 2.42-2.19m51.88-11.68h-7.41V33h-7.09V13.19h-7.41V7h21.91zM62.04 7l-8.8 24.89-5.3-8.2c2.53-1.49 4.39-4.35 4.39-7.55 0-5.24-4.36-9.14-9.98-9.14H31.26v26h7.09v-8.08h2.86L46.36 33h14.21l1.19-3.75h9.27L72.22 33h7.68L70.71 7h-8.68zM42.27 19.27h-3.92v-6.14h3.92c1.74 0 2.97 1.38 2.97 3.09s-1.23 3.09-2.97 3.05m21.33 4.26 2.79-8.84 2.83 8.84zM92.06 7H81.04v26h11.02c7.64 0 13.47-5.65 13.47-13S99.71 7 92.06 7m0 19.57h-3.74V13.42h3.74c3.8 0 6.53 2.6 6.53 6.57s-2.73 6.57-6.53 6.57ZM108.38 7h7.09v26h-7.09zm17.93 19.81v-3.88h8.38v-6.12h-8.38v-3.62h11.6V7h-18.69v26h19.01v-6.19zM6.77 13.19h7.41V33h7.09V13.19h7.41V7H6.77z" style="" fill="#0F133C" stroke-width="0px"></path></g></svg>